<?xml version="1.0" encoding="UTF-8"?>
<svg width="111px" height="111px" viewBox="0 0 111 111" version="1.1" xmlns="http://www.w3.org/2000/svg" xmlns:xlink="http://www.w3.org/1999/xlink">
    <!-- Generator: Sketch 63.1 (92452) - https://sketch.com -->
    <title>Untitledkaku_icon</title>
    <desc>Created with Sketch.</desc>
    <g id="Page-3" stroke="none" stroke-width="1" fill="none" fill-rule="evenodd">
        <path d="M37.9993488,62.4054884 L94.4744709,95.0125489 C84.4530019,104.898392 70.6890544,111 55.5,111 C49.3855191,111 43.5019814,110.011215 38.0005627,108.18482 L37.9993488,62.4054884 Z M27.0003589,7.8664399 L26.9993488,55.9594884 L26.9583488,56.0310889 L26.9993488,56.0544884 L27.0003589,103.13356 C10.8256498,93.435233 0,75.7318495 0,55.5 C0,35.2681505 10.8256498,17.564767 27.0003589,7.8664399 Z M98.3971564,20.2826382 C106.272188,29.8637919 111,42.1297761 111,55.5 C111,68.3902765 106.605522,80.2541676 99.2329809,89.6752596 L84.9993488,81.4574884 L84.9993488,28.0174884 Z M79.9993488,30.9034884 L79.9993488,78.5714884 L38.7183488,54.7374884 L79.9993488,30.9034884 Z M55.5,0 C70.1952103,0 83.5564767,5.71129263 93.4851932,15.0352718 L37.9993488,47.0684884 L38.0005627,2.81517998 C43.5019814,0.98878526 49.3855191,0 55.5,0 Z" id="Combined-Shape" fill="#212529"></path>
    </g>
</svg>